<svg xmlns="http://www.w3.org/2000/svg" xmlns:xlink="http://www.w3.org/1999/xlink" width="13.6" height="11.053" viewBox="0 0 13.6 11.053">
  <defs>
    <clipPath id="clip-path">
      <path id="Path_72" data-name="Path 72" d="M4.277-9.947a7.885,7.885,0,0,0,7.939-7.939c0-.121,0-.241-.008-.361A5.676,5.676,0,0,0,13.6-19.692a5.57,5.57,0,0,1-1.6.439A2.8,2.8,0,0,0,13.224-20.8a5.591,5.591,0,0,1-1.772.677A2.787,2.787,0,0,0,9.416-21a2.791,2.791,0,0,0-2.791,2.79,2.788,2.788,0,0,0,.072.636A7.921,7.921,0,0,1,.947-20.489a2.78,2.78,0,0,0-.378,1.4A2.788,2.788,0,0,0,1.81-16.764a2.77,2.77,0,0,1-1.264-.349c0,.012,0,.023,0,.036a2.791,2.791,0,0,0,2.238,2.735,2.8,2.8,0,0,1-.736.1,2.784,2.784,0,0,1-.525-.05,2.793,2.793,0,0,0,2.607,1.938A5.6,5.6,0,0,1,.666-11.162,5.675,5.675,0,0,1,0-11.2,7.9,7.9,0,0,0,4.277-9.947" transform="translate(0 21)" fill="#fff" clip-rule="evenodd"/>
    </clipPath>
    <clipPath id="clip-path-2">
      <path id="Path_71" data-name="Path 71" d="M-1083,2286.76h683.468V-1318H-1083Z" transform="translate(1083 1318)" fill="#fff"/>
    </clipPath>
  </defs>
  <g id="Group_32" data-name="Group 32" transform="translate(0 0)" clip-path="url(#clip-path)">
    <g id="Group_31" data-name="Group 31" transform="translate(-578.278 -692.545)" clip-path="url(#clip-path-2)">
      <path id="Path_70" data-name="Path 70" d="M-1-22H13.667V-9.88H-1Z" transform="translate(578.744 714.011)" fill="#fff"/>
    </g>
  </g>
</svg>
